<svg width="2500" height="972" viewBox="0 0 2500 972" fill="none" xmlns="http://www.w3.org/2000/svg">
<path d="M2499.59 724.777C2499.59 861.294 2388.9 971.979 2252.39 971.979H1274.1C1137.58 971.979 1026.9 861.294 1026.9 724.777V247.202C1026.9 110.685 1137.58 0 1274.1 0H2252.36C2388.88 0 2499.57 110.685 2499.57 247.202V724.777H2499.59Z" fill="#EC2027"/>
<path d="M1986.58 52.0567C1986.58 52.0567 2436.2 -9.80568 2448.6 188.162V349.07L1986.58 52.0567Z" fill="url(#paint0_linear_415_2)"/>
<path d="M1272.54 775.227V259.171H1170.46V157.097H1463.05V259.171H1361.01V775.227H1272.54V775.227ZM1739.71 311.022V775.227H1658.63V729.103C1641.53 768.099 1616.54 787.587 1583.56 787.587C1530.45 787.587 1503.88 750.259 1503.88 675.645V311.022H1583.72V614.339C1583.72 639.224 1585.14 657.002 1588.01 667.714C1593.14 686.172 1603.4 695.422 1618.74 695.422C1635.35 695.422 1646.41 685.41 1651.95 665.325C1654.98 653.789 1656.54 634.569 1656.54 607.541V311.022H1739.71ZM1811.03 775.227V157.097H1893.74V350.306C1907.58 315.863 1930.98 298.662 1963.88 298.662C2005.9 298.662 2033.43 328.614 2046.38 388.499C2053.02 418.72 2056.29 470.982 2056.29 545.329C2056.29 617.512 2052.69 669.115 2045.5 700.139C2031.92 758.417 2004.13 787.566 1962.17 787.566C1927.17 787.566 1903.01 767.275 1889.64 726.652V775.186L1811.03 775.227V775.227ZM1934.5 388.829C1911.9 388.829 1898.02 412.643 1892.85 460.25C1891.8 469.891 1891.3 503.984 1891.3 562.592C1891.3 607.788 1892.23 635.99 1894.11 647.238C1899.48 681.723 1912.96 699.006 1934.54 699.006C1954.67 699.006 1966.87 677.87 1971.21 635.599C1972.26 626.761 1972.78 596.438 1972.78 544.525C1972.78 490.779 1972.35 460.106 1971.52 452.648C1967.15 410.088 1954.84 388.829 1934.5 388.829V388.829ZM2275.77 615.946H2353.51C2353.51 618.089 2353.61 621.096 2353.82 624.969C2354.07 628.842 2354.15 631.87 2354.15 633.992C2354.15 687.491 2344.28 726.425 2324.53 750.919C2304.77 775.35 2274.14 787.587 2232.55 787.587C2189.53 787.587 2158.55 772.734 2139.64 743.07C2124.6 719.503 2115.04 685.163 2110.88 640.007C2109.03 620.21 2108.1 582.903 2108.1 528.066C2108.1 483.94 2109.03 452.545 2110.88 433.84C2114.61 395.854 2122.71 366.993 2135.29 347.216C2155.89 314.874 2188.98 298.682 2234.69 298.682C2278.73 298.682 2310.89 316.193 2331.26 351.172C2347.74 379.497 2355.94 436.642 2355.94 522.689V557.936H2193.59C2192.99 563.045 2192.67 572.953 2192.67 587.641C2192.67 622.188 2194.09 646.826 2196.99 661.534C2202.97 691.796 2215.33 706.917 2234.03 706.917C2261.86 706.917 2275.77 676.593 2275.77 615.946V615.946ZM2192.91 484.27H2272.99V464.658C2272.99 437.96 2271.13 419.008 2267.4 407.802C2261.66 389.921 2250.02 380.98 2232.55 380.98C2217.94 380.98 2207.52 387.119 2201.36 399.397C2193.96 414.62 2190.85 436.374 2192.11 464.658L2192.54 471.065C2192.79 475.597 2192.91 480.005 2192.91 484.27V484.27Z" fill="white"/>
<path d="M125.827 778.729V515.17L0.433105 157.097H99.1493L171.477 390.951L242.856 157.097H338.771L215.623 515.149V778.729H125.827ZM369.506 545.535C369.506 465.132 375.604 408.131 387.82 374.471C406.01 324.474 441.998 299.445 495.786 299.445C549.531 299.445 585.664 324.453 604.06 374.471C616.276 407.822 622.374 464.844 622.374 545.535C622.374 626.184 616.276 683.206 604.06 716.537C585.664 766.286 549.552 791.171 495.786 791.171C441.998 791.171 406.01 766.163 387.82 716.145C375.604 682.814 369.506 625.917 369.506 545.535ZM454.771 551.57C454.771 609.375 455.08 640.79 455.698 645.899C460.003 687.552 473.167 708.379 495.168 708.379C517.189 708.379 530.641 690.519 535.565 654.777C536.595 646.97 537.11 617.821 537.11 567.288V521.741C537.11 474.423 536.492 445.933 535.276 436.271C530.105 400.798 516.942 383.061 495.786 383.061C475.206 383.061 462.351 398.676 457.201 429.844C455.574 439.773 454.75 465.977 454.75 508.434L454.771 551.57ZM920.479 311.908V778.729H838.944V732.337C821.743 771.56 796.569 791.151 763.465 791.151C710.028 791.151 683.309 753.638 683.309 678.612V311.908H763.609V616.935C763.609 641.985 765.051 659.845 767.914 670.578C773.064 689.159 783.385 698.47 798.815 698.47C815.501 698.47 826.645 688.376 832.207 668.209C835.256 656.611 836.843 637.267 836.843 610.116V311.908H920.479Z" fill="white"/>
<defs>
<linearGradient id="paint0_linear_415_2" x1="2306.93" y1="45.8561" x2="2211.06" y2="211.894" gradientUnits="userSpaceOnUse">
<stop stop-color="white"/>
<stop offset="0.093" stop-color="#FEF5F5"/>
<stop offset="0.252" stop-color="#FCDADB"/>
<stop offset="0.457" stop-color="#F9AEB1"/>
<stop offset="0.7" stop-color="#F47176"/>
<stop offset="0.973" stop-color="#EE242C"/>
<stop offset="1" stop-color="#ED1C24"/>
</linearGradient>
</defs>
</svg>
